<svg id="Layer_1" data-name="Layer 1" xmlns="http://www.w3.org/2000/svg" viewBox="0 0 296 209"><defs><style>.cls-1{fill:none;stroke:#e55625;stroke-miterlimit:10;stroke-width:0.92px;opacity:0.2;isolation:isolate;}.cls-2{fill:#8d7966;}.cls-3{fill:#e55625;}.cls-4{fill:#7f8c8d;}.cls-5{fill:#8f9090;}.cls-6{fill:#ecaa20;}.cls-7{fill:#077581;}.cls-8{fill:#00979d;}</style></defs><line class="cls-1" x1="253.53" y1="31.2" x2="296" y2="31.2"/><line class="cls-1" y1="28.97" x2="79.22" y2="28.97"/><line class="cls-1" x1="221.63" y1="51.21" x2="296" y2="51.21"/><line class="cls-1" x1="22.46" y1="51.21" x2="88.67" y2="51.21"/><line class="cls-1" x1="212.96" y1="72.08" x2="296" y2="72.08"/><line class="cls-1" x1="37.57" y1="71.63" x2="87.56" y2="71.63"/><line class="cls-1" x1="221.63" y1="92.57" x2="296" y2="92.57"/><line class="cls-1" y1="92.12" x2="58.46" y2="92.12"/><line class="cls-1" x1="221.63" y1="133.35" x2="296" y2="133.35"/><line class="cls-1" x1="277.11" y1="153.6" x2="296" y2="153.6"/><line class="cls-1" x1="260.92" y1="178.94" x2="296" y2="178.94"/><line class="cls-1" y1="133.35" x2="79.49" y2="133.35"/><line class="cls-1" x1="22.64" y1="153.58" y2="153.58"/><line class="cls-1" y1="9.91" x2="296" y2="9.91"/><line class="cls-1" x1="221.63" y1="113.69" x2="296" y2="113.69"/><line class="cls-1" y1="112.99" x2="69.03" y2="112.99"/><line class="cls-1" y1="178.71" x2="22.64" y2="178.71"/><line class="cls-1" x1="38.08" y1="141.33" x2="38.08"/><line class="cls-1" x1="7.2" y1="209" x2="7.2"/><line class="cls-1" x1="58.46" y1="134.29" x2="58.46"/><line class="cls-1" x1="78.83" y1="141.05" x2="78.83"/><line class="cls-1" x1="99.21" y1="10.65" x2="99.21"/><line class="cls-1" x1="96.06" y1="209" x2="96.06" y2="195.24"/><line class="cls-1" x1="38.08" y1="209" x2="38.08" y2="177.82"/><line class="cls-1" x1="139.96" y1="15.15" x2="139.96"/><line class="cls-1" x1="160.34" y1="9.91" x2="160.34"/><line class="cls-1" x1="163.38" y1="209" x2="163.38" y2="201.19"/><line class="cls-1" x1="185.82" y1="209" x2="185.82" y2="194.05"/><line class="cls-1" x1="208.26" y1="209" x2="208.26" y2="201.19"/><line class="cls-1" x1="230.94" y1="133.35" x2="230.94"/><line class="cls-1" x1="253.38" y1="124.36" x2="253.38"/><line class="cls-1" x1="275.44" y1="81.99" x2="275.44"/><path class="cls-2" d="M80.78,11.47a2.21,2.21,0,1,0-3.12,0,2.2,2.2,0,0,0,3.12,0Z"/><path class="cls-2" d="M162,11.47a2.21,2.21,0,1,0-3.13,0,2.22,2.22,0,0,0,3.13,0Z"/><path class="cls-2" d="M263,180.5a2.21,2.21,0,1,0-3.12,0,2.2,2.2,0,0,0,3.12,0Z"/><path class="cls-3" d="M278.32,130.49a4.07,4.07,0,1,0,0,5.76A4.07,4.07,0,0,0,278.32,130.49Zm-2.88,4.93-2-2,2-2,2,2Z"/><path class="cls-3" d="M61.33,89.23a4.07,4.07,0,1,0,0,5.76A4.06,4.06,0,0,0,61.33,89.23Zm-2.87,4.92-2-2,2-2,2,2Z"/><circle class="cls-4" cx="38.08" cy="112.96" r="0.91"/><circle class="cls-4" cx="78.84" cy="133.37" r="0.91"/><circle class="cls-4" cx="99.21" cy="9.91" r="0.91"/><circle class="cls-4" cx="96.05" cy="195.9" r="0.91"/><path class="cls-3" d="M39.31,70.09a2,2,0,1,0,0,2.88A2,2,0,0,0,39.31,70.09Z"/><path class="cls-3" d="M39.52,199.74a2,2,0,1,0,0,2.88A2,2,0,0,0,39.52,199.74Z"/><path class="cls-3" d="M214.4,70.64a2,2,0,1,0,0,2.88A2,2,0,0,0,214.4,70.64Z"/><path class="cls-3" d="M276.88,80.55a2,2,0,1,0,0,2.88A2,2,0,0,0,276.88,80.55Z"/><path class="cls-3" d="M8.65,131.6a2,2,0,1,0,0,2.88A2,2,0,0,0,8.65,131.6Z"/><path class="cls-3" d="M254.82,91.44a2,2,0,1,0,0,2.89A2,2,0,0,0,254.82,91.44Z"/><polygon class="cls-5" points="253.38 6.28 249.74 9.9 253.38 13.54 257.01 9.9 253.38 6.28"/><path class="cls-6" d="M58.54,26.44A3.53,3.53,0,0,0,55,30h7A3.5,3.5,0,0,0,58.54,26.44Z"/><path class="cls-6" d="M22.65,49.25a3.53,3.53,0,0,0-3.52,3.52h7A3.51,3.51,0,0,0,22.65,49.25Z"/><path class="cls-6" d="M275.45,48.16a3.53,3.53,0,0,0-3.52,3.52h7A3.51,3.51,0,0,0,275.45,48.16Z"/><line class="cls-1" y1="200.87" x2="288.8" y2="200.87"/><path class="cls-6" d="M163.39,199.1a3.53,3.53,0,0,0-3.52,3.52h7A3.52,3.52,0,0,0,163.39,199.1Z"/><polygon class="cls-7" points="21.47 182.01 21.47 179.93 19.39 179.93 19.39 177.95 21.47 177.95 21.47 175.87 23.44 175.87 23.44 177.95 25.54 177.95 25.54 179.93 23.44 179.93 23.45 182.01 21.47 182.01"/><polygon class="cls-7" points="229.95 117.03 229.95 114.95 227.86 114.95 227.86 112.97 229.95 112.97 229.95 110.89 231.92 110.89 231.92 112.97 234.01 112.97 234.01 114.95 231.92 114.95 231.92 117.03 229.95 117.03"/><polygon class="cls-5" points="288.81 197.56 285.17 201.18 288.81 204.81 292.43 201.18 288.81 197.56"/><path class="cls-8" d="M181.47,114.22h-1.06v8.66h1.37c3,0,3.21-1.82,3.21-4.29C185,115.74,184.7,114.22,181.47,114.22Z"/><path class="cls-8" d="M151.19,114c-1.93,0-2.27,1.14-2.27,4.71,0,2.94.21,4.42,2.29,4.42s2.4-1.21,2.4-4.58C153.61,115,153.32,114,151.19,114Z"/><path class="cls-8" d="M102.71,103.27V133h98.35V103.27Zm18,22.82c-4.33,0-6.5-2.72-6.5-7.54s2.71-7.47,7-7.47a7.71,7.71,0,0,1,4.21,1.21l-1.18,3A4.79,4.79,0,0,0,121,114c-1.9,0-3,1.37-3,4.46s.88,4.69,3,4.69a6,6,0,0,0,3.59-1.21l.83,2.82A9.33,9.33,0,0,1,120.75,126.09Zm20.35-.23H130.78V111.28h3.61v11.6h6.71Zm10.11.23c-4.19,0-6.12-2.54-6.12-7.36,0-4.4,1.68-7.65,6.1-7.65,4.15,0,6.26,1.93,6.26,7.49C157.45,122.79,155.9,126.09,151.21,126.09Zm21.51-5.23c0,4.31-3.29,5.23-5.87,5.23s-5.68-.83-5.68-5.25v-9.56h3.61v8.88c0,2.43.86,3,2.22,3,1.64,0,2.25-.74,2.25-3v-8.91h3.47Zm8.88,5h-4.8V111.28h4.78c5.45,0,7.27,2.58,7.27,7.16C188.85,121.89,187.8,125.86,181.6,125.86Z"/><path class="cls-8" d="M201.06,43.37c0-12.88-10.87-23.36-24.23-23.36a26.19,26.19,0,0,0-3.73.26c-10.37,1.48-17.32,9-21.21,14.67C148,29.22,141,21.75,130.66,20.27a26,26,0,0,0-3.72-.26c-13.37,0-24.23,10.48-24.23,23.36s10.86,23.37,24.22,23.37a27.51,27.51,0,0,0,3.73-.26C141,65,148,57.52,151.89,51.79c3.89,5.73,10.84,13.2,21.21,14.69a27.77,27.77,0,0,0,3.74.26c13.35,0,24.22-10.48,24.22-23.37M129.49,58.28a18.36,18.36,0,0,1-2.56.18c-8.79,0-15.94-6.77-15.94-15.09s7.15-15.09,16-15.09a18.35,18.35,0,0,1,2.55.19c9.78,1.39,15.77,11,17.8,14.9-2,3.87-8,13.51-17.8,14.91m27-14.91c2-3.86,8-13.51,17.79-14.9a18.35,18.35,0,0,1,2.55-.19c8.79,0,15.94,6.78,15.94,15.09s-7.14,15.09-15.93,15.09a18.47,18.47,0,0,1-2.56-.18c-9.78-1.4-15.77-11.05-17.79-14.91"/><rect class="cls-8" x="120.26" y="41.09" width="14.55" height="4.69"/><polygon class="cls-8" points="178.45 45.78 183.36 45.78 183.36 41.09 178.45 41.09 178.45 36.16 173.74 36.16 173.74 41.09 168.82 41.09 168.82 45.78 173.74 45.78 173.74 50.71 178.45 50.71 178.45 45.78"/><path class="cls-8" d="M201,21.42a2.77,2.77,0,0,0-.56-.82,2.53,2.53,0,0,0-.81-.55,2.53,2.53,0,0,0-2,0,2.53,2.53,0,0,0-.81.55,2.63,2.63,0,0,0-.76,1.86,2.53,2.53,0,0,0,.21,1,2.45,2.45,0,0,0,.55.84,2.7,2.7,0,0,0,.81.55,2.53,2.53,0,0,0,2,0,2.7,2.7,0,0,0,.81-.55,2.63,2.63,0,0,0,.56-.84,2.7,2.7,0,0,0,.2-1A2.75,2.75,0,0,0,201,21.42Zm-.57,1.84a2.13,2.13,0,0,1-1.05,1.08,1.88,1.88,0,0,1-1.52,0,1.84,1.84,0,0,1-.62-.44,2,2,0,0,1-.42-.64,1.94,1.94,0,0,1-.16-.8,2,2,0,0,1,.16-.8,2.06,2.06,0,0,1,.42-.66,1.79,1.79,0,0,1,.62-.42,1.89,1.89,0,0,1,1.52,0A2.12,2.12,0,0,1,200,21a2.28,2.28,0,0,1,.43.66,2.15,2.15,0,0,1,.15.8A2.11,2.11,0,0,1,200.43,23.26Z"/><path class="cls-8" d="M199.18,22.72a.85.85,0,0,0,.34-.31.8.8,0,0,0,.12-.43.9.9,0,0,0-.26-.64,1.2,1.2,0,0,0-.89-.27h-.42l-.36,0v2.58h.65v-.84h.26l.46.84h.73Zm-.65-.35-.19,0v-.7a1,1,0,0,1,.22,0c.27,0,.41.13.41.37S198.82,22.37,198.53,22.37Z"/><path class="cls-8" d="M105.19,87.42l4.34-13.82h3.84l4.4,13.82h-3.63l-.77-2.82h-4l-.7,2.82Zm6.12-10.54-1.25,5.06h2.61Z"/><path class="cls-8" d="M119.67,73.6h5.56c3.83,0,5.27,2,5.27,4.62a4.36,4.36,0,0,1-2.27,4.14l2.7,5.06h-4L124.81,83h-1.72v4.38h-3.42Zm7.2,4.64c0-1.23-.45-1.85-2-1.85h-1.74V80.3h1.8C126.08,80.3,126.87,79.77,126.87,78.24Z"/><path class="cls-8" d="M133,73.6h4.53c5.16,0,6.88,2.45,6.88,6.79,0,3.27-1,7-6.86,7H133Zm3.42,2.79V84.6h1.3c2.83,0,3-1.73,3-4.07,0-2.7-.28-4.14-3.34-4.14Z"/><path class="cls-8" d="M154.2,73.6h3.29v9.08c0,4.08-3.12,4.95-5.57,4.95s-5.37-.78-5.37-5V73.6H150V82c0,2.3.81,2.83,2.1,2.83,1.56,0,2.13-.7,2.13-2.81Z"/><path class="cls-8" d="M160.26,84.6h3.57V76.43h-3.57V73.6h10.58v2.83h-3.59V84.6h3.59v2.82H160.26Z"/><path class="cls-8" d="M176.6,87.42h-3.23V73.6h3.72l4.48,8.3V73.6h3.19V87.42H181.3l-4.72-8.84Z"/><path class="cls-8" d="M198.45,80.51c0,4-1.47,7.12-5.91,7.12-4,0-5.8-2.4-5.8-7,0-4.16,1.59-7.25,5.78-7.25C196.45,73.41,198.45,75.24,198.45,80.51Zm-3.64,0c0-3.38-.27-4.31-2.29-4.31-1.83,0-2.15,1.08-2.15,4.46,0,2.79.19,4.19,2.17,4.19S194.81,83.7,194.81,80.51Z"/></svg>